<svg xmlns="http://www.w3.org/2000/svg" width="243.56" height="41.569" viewBox="0 0 243.56 41.569">
  <defs>
    <style>
      .cls-1 {
        fill: #00263e;
      }

      .cls-2 {
        fill: #25b570;
      }
    </style>
  </defs>
  <g id="Group_17" data-name="Group 17" transform="translate(-0.44 -0.702)">
    <path id="Fill_1" data-name="Fill 1" class="cls-1" d="M12,4.316H4.923V18.053h6.359v4.316H4.923V40H0V0H12Z" transform="translate(54 0.702)"/>
    <path id="Fill_2" data-name="Fill 2" class="cls-1" d="M4.982,40H0V0H11.523l3.114,3.158V19.79l-2.751,2.789L15,40H10.173L7.111,22.948H4.982V40Zm0-35.789V18.842H8.616l1.039-1.053V5.263L8.616,4.211Z" transform="translate(70 0.702)"/>
    <path id="Fill_3" data-name="Fill 3" class="cls-1" d="M0,0H11.9V4.316H4.82V17.579H11V21.9H4.82v13.79H12V40H0Z" transform="translate(90 0.702)"/>
    <path id="Fill_4" data-name="Fill 4" class="cls-1" d="M8.9,5.263,7.875,4.211h-1.8L5.044,5.263V16.526l1.029,1.053h4.838L14,20.736V36.841L10.912,40H3.088L0,36.841V28.473H4.941v6.263L5.97,35.789H8.03l1.029-1.053V22.947L8.03,21.895H3.191L.1,18.737V3.158L3.191,0h7.566l3.088,3.158v8.421H8.9Z" transform="translate(105 0.702)"/>
    <path id="Fill_5" data-name="Fill 5" class="cls-1" d="M4.915,17.737h5.171V0H15V40H10.085V22.158H4.915V40H0V0H4.915Z" transform="translate(124 0.702)"/>
    <path id="Fill_6" data-name="Fill 6" class="cls-1" d="M0,0H5.528l5.847,21.5V0H16V31H10.472L4.625,9.83V31H0Z" transform="translate(151 0.702)"/>
    <path id="Fill_7" data-name="Fill 7" class="cls-1" d="M0,40V0H5.166V35.684H12V40Z" transform="translate(177 0.702)"/>
    <path id="Fill_8" data-name="Fill 8" class="cls-1" d="M0,0H11.9V4.316H4.82V17.579H11V21.9H4.82v13.79H12V40H0Z" transform="translate(193 0.702)"/>
    <path id="Fill_9" data-name="Fill 9" class="cls-1" d="M17,40h-5.28l-1-10.315H6.071L5.068,40H0L4.805,0h7.286L17,40ZM8.394,5.211h0L6.441,25.368h3.907L8.4,5.211Z" transform="translate(207 0.702)"/>
    <path id="Fill_10" data-name="Fill 10" class="cls-1" d="M0,0H5.528l5.847,27.737V0H16V40H10.472L4.625,12.685V40H0Z" transform="translate(228 0.702)"/>
    <path id="Fill_11" data-name="Fill 11" class="cls-1" d="M0,4H16V0H0Z" transform="translate(151 36.702)"/>
    <g id="Group_16" data-name="Group 16" transform="translate(0 0.702)">
      <path id="Fill_12" data-name="Fill 12" class="cls-1" d="M20.723,0A20.716,20.716,0,0,0,4.994,34.205l3.053-4.33a15.632,15.632,0,0,1,12.676-24.8H36.366V20.722A15.647,15.647,0,0,1,16.833,35.876L11.955,39.5A20.722,20.722,0,0,0,41.444,20.722V0Z" transform="translate(0.44 0.126)"/>
      <path id="Fill_14" data-name="Fill 14" class="cls-2" d="M.5,33.054a.637.637,0,0,1-.473-.208.272.272,0,0,1-.011-.2l.005-.014a.514.514,0,0,0,.034-.368.261.261,0,0,1,.01-.194,2.847,2.847,0,0,1,.3-.487c.034-.04.116-.041.2-.043l.068,0H.651a.645.645,0,0,1,.072.005.656.656,0,0,0,.075.006.235.235,0,0,0,.04,0,.13.13,0,0,0,.11-.08.116.116,0,0,0-.039-.115.2.2,0,0,1-.046-.192l0-.012a1.351,1.351,0,0,1,.31-.63,2.688,2.688,0,0,0,.194-.29c.023-.042.1-.061.171-.073a.351.351,0,0,0,.259-.349.368.368,0,0,1,.06-.2A.431.431,0,0,1,2,29.474a.33.33,0,0,0,.17-.3.345.345,0,0,1,.09-.2c.086-.1.176-.194.263-.287.117-.125.238-.255.351-.389.035-.041.067-.085.1-.128a.855.855,0,0,1,.3-.289.209.209,0,0,0,.07-.091c.009-.016.017-.032.026-.046l.048-.074c.027-.042.054-.085.084-.126s.055-.056.081-.056.05.019.073.056a.083.083,0,0,0,.02.02.149.149,0,0,0,.088.038.089.089,0,0,0,.073-.043.1.1,0,0,0,.023-.087.1.1,0,0,0-.065-.061c-.025-.009-.038-.019-.042-.031s0-.035.016-.063c.035-.066.066-.135.1-.2s.062-.136.1-.2a2.817,2.817,0,0,1,.175-.283.4.4,0,0,1,.052-.058.308.308,0,0,0,.059-.069,1.1,1.1,0,0,1,.473-.452.243.243,0,0,0,.076-.181c.008-.261.009-.289.264-.381a.867.867,0,0,1,.285-.04l.074,0c.034,0,.068.037.1.071a.6.6,0,0,0,.044.043l.016.014c.013.012.026.023.033.023a.1.1,0,0,0,.054-.057.32.32,0,0,0-.127-.42c-.068-.052-.1-.1-.073-.178s.091-.135.171-.135h.006l.032,0,.044,0h.009c.063,0,.105-.022.119-.054s0-.067-.033-.109a.288.288,0,0,1,.018-.4c.092-.118.19-.234.284-.347.063-.074.124-.147.184-.22l.192-.238c.12-.149.244-.3.371-.451a.828.828,0,0,1,.239-.182.227.227,0,0,0,.127-.152,2.122,2.122,0,0,1,.121-.29l.025-.053a1.81,1.81,0,0,1,.1-.183,1.493,1.493,0,0,1,.106-.145.183.183,0,0,1,.037-.03c.02-.014.039-.027.044-.046.059-.194.221-.225.378-.254l.036-.007c.1-.02.157-.046.176-.087s0-.1-.05-.19c-.019-.032-.051-.1-.034-.129a2.007,2.007,0,0,1,.257-.345.08.08,0,0,1,.053-.013.2.2,0,0,1,.129.04.68.68,0,0,1,.118.262l.008.031c.018.069.036.141.119.149h.013a.215.215,0,0,0,.153-.068.164.164,0,0,0-.038-.229.98.98,0,0,0-.193-.139c-.141-.08-.166-.147-.1-.275a1.329,1.329,0,0,1,.126-.2c.025-.034.051-.069.074-.105l.01-.015a.632.632,0,0,0,.07-.128.688.688,0,0,1,.268-.4.184.184,0,0,0,.06-.06c.116-.194.229-.385.338-.58a.575.575,0,0,1,.513-.361h.028a.22.22,0,0,0,.182-.059.276.276,0,0,0,.017-.231.438.438,0,0,1,0-.149c0-.027.008-.055.009-.082s0-.043.006-.064a.513.513,0,0,0,0-.177l-.011-.041a.375.375,0,0,1,.016-.34.092.092,0,0,0,0-.089.141.141,0,0,0-.083-.022H10.3a.737.737,0,0,0-.088.012.7.7,0,0,1-.093.013H10.1a.158.158,0,0,1-.17-.146c-.02-.1-.061-.137-.137-.137a.368.368,0,0,0-.083.011l-.028.007a.907.907,0,0,1-.137.026c-.032,0-.059,0-.083,0-.116,0-.142-.038-.185-.19a.228.228,0,0,0-.228-.17.353.353,0,0,0-.114.02.321.321,0,0,1-.1.018.314.314,0,0,1-.2-.079c-.055-.042-.114-.08-.171-.117l-.088-.057c-.049-.032-.073-.062-.078-.095a.128.128,0,0,1,.044-.1.158.158,0,0,0,0-.23.1.1,0,0,0-.074-.035.242.242,0,0,0-.125.058l-.015.01a.305.305,0,0,0-.074.085c-.056.089-.114.131-.182.131a.3.3,0,0,1-.157-.058c-.084-.055-.168-.111-.251-.167-.164-.111-.333-.225-.508-.324a2.271,2.271,0,0,0-.5-.187.574.574,0,0,1-.306-.211c-.087-.106-.182-.207-.274-.306l-.085-.091a.517.517,0,0,1-.127-.486,2.74,2.74,0,0,1,.087-.286c.012-.036.024-.071.036-.106.024-.073.066-.11.126-.11a.2.2,0,0,1,.059.01l.018.008a.08.08,0,0,0,.032.01l.111-.013c.191-.024.389-.048.582-.082.035-.006.072-.084.078-.131a.666.666,0,0,1,.608-.619.414.414,0,0,0,.359-.236c.014-.028.051-.093.092-.1a.893.893,0,0,0,.432-.29c.037-.037.074-.075.113-.11a.642.642,0,0,1,.1-.068c.022-.013.044-.026.065-.041l.239-.17.241-.172.031-.024a.163.163,0,0,1,.086-.047.6.6,0,0,0,.312-.112c.037-.022.075-.045.114-.063a.427.427,0,0,0,.116-.1c.025-.027.048-.058.07-.087a.639.639,0,0,1,.135-.146.92.92,0,0,1,.316-.131.187.187,0,0,1,.041,0c.074,0,.116.054.117.148a.22.22,0,0,0,.265.2c.035-.007.056-.021.064-.041a.078.078,0,0,0-.021-.072.28.28,0,0,1-.024-.374.1.1,0,0,0,.009-.062v-.007c0-.178.022-.211.194-.27a.283.283,0,0,1,.089-.016.226.226,0,0,1,.194.132.394.394,0,0,0,.13.144.093.093,0,0,0,.048.01.442.442,0,0,0,.054,0,.48.48,0,0,1,.051,0c0-.013,0-.026-.005-.039a.369.369,0,0,0-.018-.088.343.343,0,0,0-.033-.058.3.3,0,0,1-.035-.065.246.246,0,0,1,.027-.225.218.218,0,0,1,.18-.09l.032,0,.038,0a.184.184,0,0,0,.155-.082,3.4,3.4,0,0,1,.33-.343.275.275,0,0,1,.167-.045h.012c.165,0,.189-.019.229-.185a.28.28,0,0,1,.086-.153,5.542,5.542,0,0,1,.472-.333.341.341,0,0,1,.171-.052.183.183,0,0,1,.038,0,.36.36,0,0,0,.077.009.269.269,0,0,0,.222-.119.84.84,0,0,1,.354-.272.621.621,0,0,0,.142-.092l.057-.043c.056-.04.114-.078.171-.117a3.385,3.385,0,0,0,.367-.27,2.494,2.494,0,0,1,.471-.3,3.053,3.053,0,0,0,.375-.227,5.161,5.161,0,0,1,.595-.371l.032-.018a1.826,1.826,0,0,0,.261-.193c.045-.038.092-.077.14-.112l.016-.012a.553.553,0,0,1,.163-.093.4.4,0,0,1,.111-.022c.073,0,.1.049.132.168a.2.2,0,0,0,.056.076c.011.011.023.022.032.034l.034-.026a.194.194,0,0,0,.07-.071.212.212,0,0,0,.014-.163A.147.147,0,0,1,17.2,7.16c.01-.014.02-.028.03-.044a1.129,1.129,0,0,1,.6-.5A3.35,3.35,0,0,0,18.44,6.3a1.63,1.63,0,0,0,.219-.172c.049-.043.1-.087.151-.127a.865.865,0,0,1,.269-.16.315.315,0,0,0,.247-.185l0-.01a.1.1,0,0,1,.031-.05,1.754,1.754,0,0,0,.214-.151,1.057,1.057,0,0,1,.378-.218.925.925,0,0,0,.552-.336,1.015,1.015,0,0,1,.328-.244c.044-.025.088-.049.129-.075a.092.092,0,0,1,.046-.015c.035,0,.06.031.071.088a.139.139,0,0,0,.038.058c.008.009.015.017.022.026l.02-.032a.118.118,0,0,0,.029-.068c-.011-.1.038-.138.127-.173a.432.432,0,0,0,.157-.112.791.791,0,0,1,.535-.337.3.3,0,0,0,.193-.144.964.964,0,0,1,.336-.326l.088-.062a.234.234,0,0,1,.127-.033.136.136,0,0,1,.086.022.106.106,0,0,1,.036.079.216.216,0,0,1-.072.147A.363.363,0,0,0,22.687,4c0,.035.03.093.057.1l.026,0c.04,0,.088-.014.1-.035a.987.987,0,0,1,.124-.186.5.5,0,0,0,.154-.385A.451.451,0,0,1,23.432,3a1.046,1.046,0,0,0,.134-.092c.028-.021.057-.043.087-.063a.267.267,0,0,1,.148-.058.172.172,0,0,1,.121.054.1.1,0,0,0,.06.03c.016,0,.037-.01.041-.056.016-.174.144-.251.273-.316a.674.674,0,0,0,.291-.259.575.575,0,0,1,.386-.264,1.52,1.52,0,0,0,.176-.053l.014-.005a.374.374,0,0,1,.129-.033.148.148,0,0,1,.115.057.054.054,0,0,0,.034.01l.018,0c0-.007,0-.013,0-.02a.088.088,0,0,0-.006-.042c-.043-.074-.059-.109-.051-.137s.046-.049.121-.085a.789.789,0,0,0,.162-.111.734.734,0,0,1,.47-.22.543.543,0,0,1,.077.006.126.126,0,0,0,.092-.075.512.512,0,0,1,.3-.358.208.208,0,0,0,.063-.054.279.279,0,0,1,.051-.048,2.314,2.314,0,0,1,.222-.13c.053-.027.107-.053.16-.077a2.1,2.1,0,0,0,.307-.165A1.99,1.99,0,0,0,27.616.28,1.073,1.073,0,0,1,28,.023.515.515,0,0,1,28.156,0a.435.435,0,0,1,.1.011A1.546,1.546,0,0,1,28.5.1l.085.035a.426.426,0,0,1,.258.52c-.015.124-.041.25-.066.372l-.007.032a.238.238,0,0,1-.051.113c-.1.095-.2.188-.3.278l-.109.1-.015.01a.043.043,0,0,0-.019.016,1.33,1.33,0,0,1-.247.317,1.031,1.031,0,0,0-.3.446.32.32,0,0,1-.147.159.155.155,0,0,1-.078.023.149.149,0,0,1-.139-.124.728.728,0,0,1-.017-.115c0-.023,0-.045-.007-.068-.01-.069-.032-.149-.113-.149l-.021,0c-.039.006-.169.031-.212.1a.184.184,0,0,0,.042.244c.089.078.176.162.261.244l.026.025a.131.131,0,0,1,.014.179L27.3,2.94a1.025,1.025,0,0,1-.382.443.438.438,0,0,0-.233.323c-.006.047-.072.1-.13.13-.087.037-.157.077-.131.2a.135.135,0,0,1-.024.105,1.359,1.359,0,0,0-.18.247.9.9,0,0,1-.307.344c-.029.016-.06.031-.091.046a.821.821,0,0,0-.179.106.612.612,0,0,0-.142.212c-.025.053-.044.11-.063.165a1.723,1.723,0,0,1-.066.171l-.013.026a2.639,2.639,0,0,1-.226.407c-.085.116-.181.227-.275.334-.051.058-.1.116-.15.175-.021.025-.041.053-.059.08a.7.7,0,0,1-.1.118,3.529,3.529,0,0,0-.486.559.229.229,0,0,1-.167.056h-.043a.075.075,0,0,0-.06.019c-.014.017-.012.047,0,.086l0,.024A.349.349,0,0,1,23.8,7.5a.437.437,0,0,1-.155.184.087.087,0,0,1-.05.018.159.159,0,0,1-.1-.056l-.03-.026a.176.176,0,0,0-.105-.029.187.187,0,0,0-.067.011.148.148,0,0,0-.059.135c.011.029.063.045.109.059l.028.009a.562.562,0,0,0,.093.018l.051.008c0,.016-.009.033-.013.05a.44.44,0,0,1-.039.116c-.039.069-.083.137-.125.2a2.692,2.692,0,0,0-.209.368,2.2,2.2,0,0,1-.541.7,1.024,1.024,0,0,0-.073.081c-.022.026-.044.053-.069.077l-.039.039a1.019,1.019,0,0,1-.178.154.3.3,0,0,0-.148.209.591.591,0,0,1-.118.229,1.79,1.79,0,0,1-.193.2l-.048.044a.4.4,0,0,0-.164.282c0,.108-.1.148-.194.181l-.255.085-.159.053a.139.139,0,0,0-.1.164.592.592,0,0,0,.016.071l.007.026a.8.8,0,0,1-.2.7c-.205.263-.427.536-.659.812a.252.252,0,0,1-.1.058.471.471,0,0,0-.066.031l-.037.021a.273.273,0,0,0-.112.086,2.007,2.007,0,0,0-.1.2c-.025.056-.05.114-.08.169a.215.215,0,0,1-.07.068c-.013.01-.027.019-.038.03l-.019-.031a.284.284,0,0,1-.037-.07.225.225,0,0,0-.23-.175.2.2,0,0,0-.206.178.517.517,0,0,1-.029.085.577.577,0,0,0-.026.075c-.01.039-.022.093,0,.113a.132.132,0,0,0,.09.03l.025,0a.428.428,0,0,0,.1-.035c.02-.009.04-.018.06-.025a.212.212,0,0,1,.067-.014.058.058,0,0,1,.048.019.124.124,0,0,1,.008.1.385.385,0,0,1-.3.338c-.193.045-.231.092-.238.292a.7.7,0,0,1-.212.48.376.376,0,0,0-.11.264.539.539,0,0,1-.048.166.953.953,0,0,0-.036.1.644.644,0,0,0-.018.108c0,.016,0,.032-.006.047.015,0,.031,0,.048,0a.469.469,0,0,0,.053,0,.113.113,0,0,0,.046-.008.3.3,0,0,1,.126-.032.272.272,0,0,1,.2.106.394.394,0,0,0,.1.078c.072.038.147.073.22.107a2.764,2.764,0,0,1,.451.247,1.615,1.615,0,0,0,.641.289,3.658,3.658,0,0,1,.508.159,1.342,1.342,0,0,1,.225.117l.034.02a.526.526,0,0,1,.069.053.265.265,0,0,0,.115.07,1.046,1.046,0,0,1,.416.208l.068.048a.374.374,0,0,1,.124.147.2.2,0,0,0,.191.142.278.278,0,0,0,.058-.007.391.391,0,0,1,.082-.009.364.364,0,0,1,.261.122.564.564,0,0,0,.122.081.835.835,0,0,1,.091.054l0,0a1.713,1.713,0,0,1,.227.193.185.185,0,0,1,.063.139.149.149,0,0,1-.071.1.1.1,0,0,0-.029.085l.039.06a1.125,1.125,0,0,0,.177.229.206.206,0,0,1,.07.28c-.046.108-.086.145-.16.145a.392.392,0,0,1-.088-.012l-.314-.071a.269.269,0,0,0-.059-.007.125.125,0,0,0-.1.036.164.164,0,0,0-.035.126.641.641,0,0,0,.033.149l.013.042a.26.26,0,0,1-.011.2.251.251,0,0,1-.163.11c-.045.012-.092.023-.139.031a.267.267,0,0,0-.234.2.471.471,0,0,1-.393.328.23.23,0,0,0-.131.044,1.7,1.7,0,0,1-.455.289c-.065.032-.132.065-.2.1a.354.354,0,0,0-.064.052l-.032.029c-.03.025-.058.052-.086.078a1.048,1.048,0,0,1-.192.153c-.143.082-.292.159-.436.233-.111.057-.225.116-.336.177a.482.482,0,0,0-.136.138.467.467,0,0,1-.287.189.5.5,0,0,0-.382.261.221.221,0,0,1-.094.1c-.162.076-.306.138-.441.187a.62.62,0,0,0-.377.255c0,.006,0,.01-.008.011a.924.924,0,0,0-.294.247,1.449,1.449,0,0,1-.173.172.266.266,0,0,1-.168.066.29.29,0,0,1-.133-.036.2.2,0,0,0-.093-.022.32.32,0,0,0-.222.1.233.233,0,0,0-.071.169c.006.154-.068.213-.2.265a1.047,1.047,0,0,0-.189.1c-.033.021-.068.043-.1.062-.141.078-.328.181-.52.283a.084.084,0,0,1-.037.011.031.031,0,0,1-.029-.017.1.1,0,0,1-.009-.05c0-.074,0-.186-.105-.186s-.105.092-.111.166c0,.011,0,.022,0,.032a.521.521,0,0,1-.5.511.636.636,0,0,0-.164.04l-.025.011a.311.311,0,0,1-.12.035.142.142,0,0,1-.1-.046.024.024,0,0,0-.018-.005l-.025,0-.022,0c0,.009,0,.019.006.029a.183.183,0,0,0,.016.058.249.249,0,0,1,.035.2.178.178,0,0,1-.106.105.26.26,0,0,1-.1.019.311.311,0,0,1-.073-.009.674.674,0,0,0-.159-.024c-.115,0-.179.057-.287.179-.019.021-.037.044-.056.067a.448.448,0,0,1-.346.224.384.384,0,0,1-.051,0c-.033,0-.1.069-.1.106,0,.279-.145.433-.455.5a.676.676,0,0,0-.224.119,1.2,1.2,0,0,1-.136.086c-.157.08-.32.156-.476.23l-.154.072a.094.094,0,0,1-.032.005c-.011,0-.021,0-.022.005-.028.1-.109.142-.195.181a.374.374,0,0,0-.185.138.627.627,0,0,1-.3.2l-.021.009a.143.143,0,0,1-.055.013.075.075,0,0,1-.056-.023.159.159,0,0,1-.032-.117.1.1,0,0,0-.018-.047l-.011-.02-.019.011a.073.073,0,0,0-.034.028c-.011.025-.022.051-.034.076a.807.807,0,0,0-.08.239.324.324,0,0,1-.2.279,2.288,2.288,0,0,0-.211.127,2.334,2.334,0,0,1-.211.127,1.715,1.715,0,0,1-.418.16.389.389,0,0,0-.3.229A.762.762,0,0,1,8.7,27.9a1.144,1.144,0,0,0-.179.1l-.072.044a.622.622,0,0,0-.056.039.289.289,0,0,1-.111.062.6.6,0,0,0-.3.192l-.008.008a2.286,2.286,0,0,1-.277.218c-.045.032-.09.064-.134.1l-.032.024c-.052.039-.107.079-.157.122a.312.312,0,0,1-.2.1.34.34,0,0,1-.157-.048.276.276,0,0,0-.13-.037.218.218,0,0,0-.146.059c-.088.077-.134.152-.069.27a.085.085,0,0,1,.01.076c-.016.037-.07.055-.115.067-.112.028-.231.053-.387.08a.468.468,0,0,0-.376.352.284.284,0,0,1-.241.243.588.588,0,0,0-.166.086l-.049.031a.141.141,0,0,0-.033.031.094.094,0,0,1-.04.033,1.382,1.382,0,0,0-.427.265c-.057.046-.116.093-.177.135a.526.526,0,0,1-.3.1.456.456,0,0,1-.145-.024.161.161,0,0,0-.051-.009c-.053,0-.09.035-.108.1a.469.469,0,0,1-.288.306,3.874,3.874,0,0,0-.444.264l-.036.024a.472.472,0,0,1-.251.067.441.441,0,0,1-.264-.079l-.046-.035a.974.974,0,0,1-.157-.137.145.145,0,0,0-.112-.062.3.3,0,0,0-.128.042l-.012.006a.177.177,0,0,0-.1.236c.027.1.091.119.193.12a2.444,2.444,0,0,1,.371.043l.061.01c.019,0,.049.039.057.054s0,.006,0,.007l-.026.037a.646.646,0,0,1-.141.16.044.044,0,0,1-.026.007.342.342,0,0,1-.131-.044.261.261,0,0,1-.063-.049.291.291,0,0,0-.057-.046.3.3,0,0,0-.135-.046.14.14,0,0,0-.108.054.207.207,0,0,0-.016.289.187.187,0,0,1-.052.273,1.927,1.927,0,0,1-.288.191l-.018.01c-.139.08-.283.156-.422.229l-.05.027a1.064,1.064,0,0,1-.124.051l-.02.007a.277.277,0,0,1-.041.011c-.028.006-.054.011-.064.028a.52.52,0,0,1-.342.2,1.12,1.12,0,0,0-.173.058A.266.266,0,0,1,.5,33.054Zm2.2-3.067a.393.393,0,0,0-.247.124.293.293,0,0,0-.067.105.21.21,0,0,0,.186.3.214.214,0,0,0,.184-.136c.09-.174.1-.311.024-.367a.132.132,0,0,0-.081-.025Zm5.318-3.415a.151.151,0,0,0-.117.086l-.006.01a.165.165,0,0,0-.033.093c.015.125-.055.182-.164.229a.223.223,0,0,0-.091.065.111.111,0,0,0-.021.086.084.084,0,0,0,.06.042h.005c.139-.059.279-.124.414-.187l.052-.024s.007-.011.01-.018l0-.007h.03c0-.028,0-.056-.007-.085a.624.624,0,0,0-.032-.195C8.1,26.6,8.063,26.572,8.021,26.572Zm.578-1a.1.1,0,0,0-.04.007c-.12.056-.238.124-.351.19l-.069.04a.17.17,0,0,0-.044.046c-.01.013-.021.027-.036.045.006.014.01.03.016.046a.286.286,0,0,0,.054.114.131.131,0,0,0,.1.037.149.149,0,0,0,.137-.077.233.233,0,0,1,.244-.148l.057,0a.25.25,0,0,0,.119-.042v-.01a.569.569,0,0,0-.074-.211A.152.152,0,0,0,8.6,25.573ZM7.507,24.539a.219.219,0,0,0-.115.034c-.08.05-.145.105-.075.226a1.376,1.376,0,0,1,.092.209c.017.045.034.091.054.135.026.06.069.16.1.16A.329.329,0,0,0,7.7,25.24l.041-.025c.006-.02.011-.036.015-.048a.072.072,0,0,0,.008-.037c-.01-.044-.02-.088-.03-.133a3.013,3.013,0,0,0-.1-.378A.13.13,0,0,0,7.507,24.539Zm.468-.332a.173.173,0,0,0-.112.067c-.015.025.009.089.031.123a2.586,2.586,0,0,0,.176.246.259.259,0,0,0,.063.05l.03.02c0-.013.009-.025.014-.037A.322.322,0,0,0,8.2,24.59a.094.094,0,0,0-.021-.053l-.013-.022c-.029-.058-.036-.1-.021-.129s.053-.05.123-.063a.971.971,0,0,0,.171-.057l.077-.03c0-.023,0-.044,0-.064a.147.147,0,0,0-.016-.091.15.15,0,0,0-.106-.036H8.375a.182.182,0,0,0-.108.059.272.272,0,0,1-.2.116.263.263,0,0,1-.08-.013Zm3.607-.413a.155.155,0,0,0-.135.089.146.146,0,0,0-.013.116.172.172,0,0,0,.091.1.194.194,0,0,0,.069.014.123.123,0,0,0,.112-.074.2.2,0,0,0,.01-.158.125.125,0,0,0-.066-.077A.185.185,0,0,0,11.582,23.794ZM14,23.456a.127.127,0,0,0-.055.016.283.283,0,0,0-.068.053l-.041.036c0,.024,0,.049-.005.075a.633.633,0,0,0,0,.18.157.157,0,0,0,.115.093.171.171,0,0,0,.105-.12.72.72,0,0,0,0-.166c0-.028,0-.056,0-.084a.1.1,0,0,0-.019-.07A.046.046,0,0,0,14,23.456Zm-5.319-.15H8.655c-.077.005-.165.011-.159.125a.185.185,0,0,0,.179.161h.018A.252.252,0,0,0,8.8,23.56c.043-.029.1-.066.1-.1a.182.182,0,0,0-.042-.1c-.009-.014-.018-.027-.025-.041l-.062-.008A.613.613,0,0,0,8.68,23.306Zm4.4-.684c-.057,0-.091.036-.1.108a1.823,1.823,0,0,0-.015.222.227.227,0,0,0,.062.162.129.129,0,0,0,.09.044.087.087,0,0,0,.038-.009.337.337,0,0,0,.2-.284.185.185,0,0,0-.131-.193A.318.318,0,0,0,13.078,22.622Zm-2.158,0c0,.01-.005.021-.008.032s-.015.053-.006.066a.349.349,0,0,1,.051.26V23a.141.141,0,0,0,.035.107.11.11,0,0,0,.081.035.132.132,0,0,0,.061-.016.84.84,0,0,0,.158-.117c.027-.024.057-.049.089-.075l-.034-.038a.452.452,0,0,0-.07-.071c-.082-.063-.169-.123-.257-.178a.183.183,0,0,0-.067-.02l-.032-.006Zm-2.722,0a.228.228,0,0,0-.189.116A.219.219,0,0,0,8,22.916a.131.131,0,0,0,.072.077.178.178,0,0,0,.062.012.163.163,0,0,0,.138-.093c.053-.111.039-.238-.03-.273a.112.112,0,0,0-.049-.01Zm3.63-.046h0c0,.013,0,.026,0,.039a.353.353,0,0,0,.012.077.47.47,0,0,0,.044.09l.013.022c.051.093.1.171.2.171a.191.191,0,0,0,.035,0c.041-.008.09-.078.1-.131.024-.115-.061-.154-.143-.192l-.027-.013-.008,0-.034-.016a.369.369,0,0,0-.072-.03.389.389,0,0,0-.081-.009l-.038,0Zm-.192-.889h-.031c-.027,0-.057,0-.059.01a.362.362,0,0,0-.014.17c0,.023.064.049.1.049h.009a.95.95,0,0,0,.224-.076.246.246,0,0,0,.083-.091.061.061,0,0,0,0-.042.2.2,0,0,1,0-.023l-.022,0c-.017,0-.034,0-.039.01-.036.055-.073.081-.111.081s-.084-.03-.133-.091Zm6.776-1.687a.184.184,0,0,0-.129.052c-.073.067-.077.159-.013.274a.294.294,0,0,1,.03.266.118.118,0,0,0,0,.111.121.121,0,0,0,.1.043h.01a.7.7,0,0,0,.135-.022l.072-.015a.15.15,0,0,0,.14-.177c0-.045,0-.091,0-.137v-.046a.3.3,0,0,0-.171-.291A.4.4,0,0,0,18.412,20.008ZM11.96,19.97a.151.151,0,0,0-.128.087.21.21,0,0,0-.02.167.127.127,0,0,0,.068.08.163.163,0,0,0,.063.014.187.187,0,0,0,.145-.1c.044-.1.025-.179-.053-.223A.151.151,0,0,0,11.96,19.97Zm7.488-.3a.318.318,0,0,0-.209.124.218.218,0,0,0-.065.163c.007.043.061.084.108.114l.007,0a.2.2,0,0,0,.081-.042c.036-.029.071-.061.1-.092l.072-.065a.117.117,0,0,0,.05-.1.129.129,0,0,0-.084-.091l-.014,0a.222.222,0,0,0-.044-.008Zm-8.949-.2c-.032,0-.062.026-.083.072a.894.894,0,0,0-.04.109l-.01.031c-.049.09-.071.142-.055.175s.059.045.143.062a.766.766,0,0,1,.114.038l.005,0a.37.37,0,0,0,.136.032c.069,0,.125-.035.195-.121.045-.056.06-.105.045-.142s-.056-.055-.12-.061a.286.286,0,0,1-.255-.142.092.092,0,0,0-.074-.056Zm3.243-.49h-.028a1.14,1.14,0,0,0-.232.031,1,1,0,0,0-.148.055l-.044.019a.221.221,0,0,0-.012.195.157.157,0,0,0,.111.087.256.256,0,0,0,.055.006.5.5,0,0,0,.4-.223.166.166,0,0,0,.005-.141C13.838,19,13.8,18.986,13.742,18.986Zm-1.9-.2a.214.214,0,0,0-.168.111,1.019,1.019,0,0,1-.118.139.107.107,0,0,0-.039.083c0,.032.032.064.091.1h.037a.75.75,0,0,0,.131-.009c.046-.009.092-.022.136-.035s.072-.021.108-.029a1.068,1.068,0,0,1,.11-.018l.041-.005-.03-.031a.778.778,0,0,1-.067-.075.46.46,0,0,1-.037-.065c-.008-.015-.015-.031-.024-.045a.211.211,0,0,0-.171-.121Zm.83-.214a.3.3,0,0,0-.252.186v.011a.25.25,0,0,0,0,.1c.005.019.055.035.085.035h.009a2.852,2.852,0,0,0,.3-.061.115.115,0,0,0,.084-.057.083.083,0,0,0-.014-.076A.256.256,0,0,0,12.673,18.571Zm2.843-.823a.154.154,0,0,0-.094.037,1.8,1.8,0,0,0-.21.187.136.136,0,0,0-.021.086.04.04,0,0,0,.009.026.944.944,0,0,1,.273.426l0,.008c.017.041.04.062.068.062a.11.11,0,0,0,.066-.029c.021-.017.041-.035.064-.055l.052-.046c0-.011,0-.022,0-.034a.315.315,0,0,0,0-.083l0-.009c-.029-.156-.058-.317-.1-.474A.121.121,0,0,0,15.516,17.748Zm6.68.141a.176.176,0,0,0-.084.036.1.1,0,0,0-.03.062.151.151,0,0,1-.163.138.126.126,0,0,0-.069.05.088.088,0,0,0-.026.057.572.572,0,0,0,.067.156c.011.02.022.039.031.059a.309.309,0,0,0,.085.013.181.181,0,0,0,.185-.138,2.385,2.385,0,0,0,.063-.345.1.1,0,0,0-.049-.086Zm-9.42,0a.416.416,0,0,1,.45.308.894.894,0,0,0,.047.119c.02.043.046.066.074.066a.1.1,0,0,0,.073-.046A.36.36,0,0,0,13.452,18a.35.35,0,0,0-.222-.24.921.921,0,0,0-.159-.02l-.065-.005-.275-.025c0-.021,0-.041,0-.063l-.052,0a.41.41,0,0,0-.127.022c-.016.006-.032.04-.038.069s0,.031,0,.035a.465.465,0,0,0,.15.1.12.12,0,0,0,.05.009h.062Zm1.411.177a.086.086,0,0,0-.065.021.071.071,0,0,0-.017.055c0,.062.047.157.089.168a.79.79,0,0,0,.2.029.437.437,0,0,0,.26-.08.492.492,0,0,1,.087-.044.521.521,0,0,0,.083-.041c.067-.044.137-.1.13-.118a1.894,1.894,0,0,0-.124-.262l-.055-.1c-.026.009-.05.015-.072.021a.264.264,0,0,0-.107.044.335.335,0,0,0-.106.163c-.024.112-.078.162-.174.162a.383.383,0,0,1-.074-.008A.32.32,0,0,0,14.186,18.066Zm5.561-1.175a.247.247,0,0,0-.091.027c-.016.007-.033.014-.049.019a.474.474,0,0,1,.017.048.168.168,0,0,0,.048.09,3.075,3.075,0,0,0,.416.238c.085.038.138.064.148.1s-.018.085-.073.163c0,.027-.005.054-.008.082a2.282,2.282,0,0,0-.016.259c0,.028.06.077.093.077a.392.392,0,0,0,.3-.314.2.2,0,0,1,.1-.186c.07-.046.1-.078.106-.114s-.017-.089-.06-.152c-.013-.02-.028-.039-.043-.058s-.04-.052-.057-.079a.181.181,0,0,0-.172-.083h-.048A1.943,1.943,0,0,1,20,16.969a.63.63,0,0,1-.115-.038.582.582,0,0,0-.126-.04Zm-5.37-.386a.192.192,0,0,0-.127.066.953.953,0,0,0-.085.1l-.032.04-.015.008-.015.008c.007.021.011.045.016.067a.279.279,0,0,0,.049.131.1.1,0,0,0,.078.039.188.188,0,0,0,.127-.072.7.7,0,0,1,.056-.051l.038-.033a.188.188,0,0,0,0-.253.131.131,0,0,0-.094-.046Zm.974-.459a.17.17,0,0,0-.1.018.187.187,0,0,0-.046.135.309.309,0,0,0,.03.136c.08.172.161.342.241.5.035.07.063.1.1.1s.059-.021.106-.07a.175.175,0,0,0,.029-.228c-.053-.1-.1-.21-.146-.314-.027-.061-.053-.12-.08-.179a.385.385,0,0,0-.045-.071l-.022-.03h-.063Zm-2.723-.122c-.014,0-.022,0-.023.005l-.008.026a.751.751,0,0,0-.053.29.165.165,0,0,0,.18.144l.03,0a.707.707,0,0,0,.19-.049.116.116,0,0,0,.076-.073.109.109,0,0,0-.03-.1c-.047-.056-.1-.107-.153-.16l-.075-.075-.06-.006C12.674,15.927,12.647,15.924,12.628,15.924Zm-3.552,0H9.054a3.793,3.793,0,0,0-.377.049.24.24,0,0,0-.121.068.135.135,0,0,0-.039.108.14.14,0,0,0,.1.059,1.742,1.742,0,0,0,.181.017l.085.006h.027a.258.258,0,0,0,.229-.152c.03-.06.037-.1.021-.128S9.119,15.919,9.077,15.919Zm1.195-.425c.08,0,.141.056.176.161a1.046,1.046,0,0,1,.037.164l.007.042c.015.085.047.184.169.2h.025a.522.522,0,0,0,.414-.286.243.243,0,0,1-.007-.028.2.2,0,0,0-.047-.1,1.508,1.508,0,0,0-.281-.187.453.453,0,0,1-.242-.28.17.17,0,0,0-.094-.107.147.147,0,0,0-.033,0,.406.406,0,0,0-.321.247.736.736,0,0,1-.057.13c-.01.019-.02.039-.029.058s-.03.065-.044.1l-.012.027.05-.012c.032-.008.065-.015.1-.026a.064.064,0,0,0,.024-.019.1.1,0,0,1,.019-.017A.271.271,0,0,1,10.271,15.494Zm-2.623.069a.25.25,0,0,0-.124.063.287.287,0,0,0-.059.08c-.009.016-.018.032-.028.046a.166.166,0,0,0-.04.13.162.162,0,0,0,.087.1.164.164,0,0,0,.081.024c.059,0,.111-.043.154-.127,0-.01.006-.022.01-.036a.385.385,0,0,0,.022-.14.191.191,0,0,0-.088-.139A.035.035,0,0,0,7.649,15.563Zm8.965.052c-.065,0-.094.064-.12.12l0,.008a.083.083,0,0,0-.008.071c.014.028.054.036.092.045l.016,0a1.062,1.062,0,0,1,.146.05.506.506,0,0,1,.058.03.24.24,0,0,0,.107.04.215.215,0,0,0,.107-.044c.015-.009.03-.019.044-.026-.007-.013-.014-.027-.02-.041a.265.265,0,0,0-.055-.089.345.345,0,0,0-.1-.057l-.046-.021,0,0-.029-.015-.121-.061a.152.152,0,0,0-.063-.016Zm-1.29-.3c-.052,0-.093.033-.125.1a.282.282,0,0,0,.014.224.054.054,0,0,0,.043.031.662.662,0,0,0,.3-.11.03.03,0,0,0,.012-.029.318.318,0,0,0-.161-.194A.193.193,0,0,0,15.323,15.313ZM7.32,15a.217.217,0,0,0-.109.031,1.23,1.23,0,0,0-.2.193.294.294,0,0,0-.01.4.12.12,0,0,0,.072.047h.005c.023,0,.043-.041.057-.071s.025-.064.036-.1a.872.872,0,0,1,.063-.152.64.64,0,0,1,.1-.12c.02-.022.042-.045.065-.071,0-.012,0-.026-.006-.041a.219.219,0,0,0-.032-.11C7.348,15,7.332,15,7.32,15Zm8.7.388h-.012a.374.374,0,0,0-.187.062.1.1,0,0,0-.04.084.119.119,0,0,0,.071.085.271.271,0,0,0,.087.015.3.3,0,0,0,.216-.11c.042-.044.086-.087.13-.13l-.041,0a.722.722,0,0,1-.1.01h-.012a.2.2,0,0,1-.056-.011A.2.2,0,0,0,16.018,15.385Zm-2.456-2.073c0,.019-.01.037-.015.056a.576.576,0,0,0-.027.138c0,.027.033.057.061.081l.006.006a.794.794,0,0,1,.266.407.2.2,0,0,0,.139.108c.249.048.445.105.509.37a.129.129,0,0,0,.127.107.165.165,0,0,0,.063-.013c.086-.035.067-.1.049-.167l-.007-.027c-.015-.061-.024-.124-.033-.185-.006-.037-.011-.074-.018-.111l0-.014c0-.025-.01-.054-.023-.06a.905.905,0,0,1-.133-.074.488.488,0,0,0-.258-.1.311.311,0,0,0-.1.018.09.09,0,0,1-.029,0,.331.331,0,0,1-.093-.02.6.6,0,0,0-.059-.016l.009-.045c.008-.044.017-.09.029-.133a.165.165,0,0,1,.031-.05l.016-.021h.023v-.2h-.133l-.067,0c-.058,0-.122-.011-.194-.023-.028-.005-.056-.013-.083-.021Zm-3.584.668-.032.011a.608.608,0,0,0-.113.047s0,.007,0,.016c0,.026.021.078.035.081.168.034.185.153.187.283,0,.059.028.1.071.1a.136.136,0,0,0,.083-.036.176.176,0,0,0,.056-.137.231.231,0,0,0-.075-.176c-.043-.037-.091-.069-.137-.1l-.067-.047c0-.013,0-.024-.006-.036Zm-1.657-.662a.165.165,0,0,0-.159.115c-.034.085-.042.142-.023.175a.064.064,0,0,0,.05.03l.03,0a.583.583,0,0,0,.2-.05c.033-.013.068-.026.1-.035l-.059-.18,0-.008,0-.015A.3.3,0,0,0,8.321,13.319Zm.984-.311a.154.154,0,0,0-.13.1.22.22,0,0,0,.065.274.172.172,0,0,0,.072.014.22.22,0,0,0,.189-.089.156.156,0,0,0-.006-.115.32.32,0,0,0-.142-.175A.111.111,0,0,0,9.305,13.008Zm5-.171a.082.082,0,0,0-.062.023.093.093,0,0,0-.02.072,2.314,2.314,0,0,0,.023.252.19.19,0,0,0,.16.145.058.058,0,0,0,.046-.019.55.55,0,0,0,.112-.261.2.2,0,0,0-.039-.12.593.593,0,0,1-.028-.055l-.018.005-.013,0-.045-.016a.458.458,0,0,0-.088-.027l-.026,0Zm1.435-1.083a.145.145,0,0,0-.034,0c-.056.013-.113.031-.167.049a1.374,1.374,0,0,1-.236.062c-.157.023-.186.032-.182.2a.418.418,0,0,1-.125.371.1.1,0,0,0-.038.092.137.137,0,0,0,.084.1.212.212,0,0,0,.088.02.142.142,0,0,0,.106-.044.172.172,0,0,0,.041-.133.3.3,0,0,1,.23-.35.18.18,0,0,0,.067-.048.415.415,0,0,1,.031-.028L15.664,12a1.043,1.043,0,0,0,.115-.095.449.449,0,0,0,.063-.1l.024-.042-.048-.008A.424.424,0,0,0,15.741,11.754Zm-1.613.412c-.052,0-.093.037-.116.1a.62.62,0,0,0-.024.119c0,.015,0,.031-.007.046l0,.02a.123.123,0,0,0,0,.091.083.083,0,0,0,.058.03.465.465,0,0,0,.069.007.119.119,0,0,0,.121-.074c.007-.021.014-.041.021-.061s.021-.06.029-.09a.142.142,0,0,0-.107-.184A.144.144,0,0,0,14.129,12.166Zm-3.091-.474c-.039,0-.074.031-.1.091a.161.161,0,0,0-.019.126.184.184,0,0,0,.112.092c.045.02.122.063.126.1a.539.539,0,0,0,.144.291,1.109,1.109,0,0,1,.087.122.124.124,0,0,0,.09.044l.015,0c.027-.009.042-.069.05-.1s.013-.061.018-.091a.74.74,0,0,1,.024-.113.278.278,0,0,0,0-.225.229.229,0,0,0-.156-.1.527.527,0,0,1-.28-.171A.152.152,0,0,0,11.038,11.692Zm3.593-.293h0a.157.157,0,0,0-.087.05l-.022.018-.035.087c-.027.066-.05.122-.067.179a.161.161,0,0,0,.009.138.143.143,0,0,0,.108.061.673.673,0,0,0,.087.006.29.29,0,0,0,.161-.038c.11-.075.064-.214.039-.27-.006-.013-.011-.026-.016-.039a.367.367,0,0,0-.051-.1c-.049-.061-.091-.092-.125-.093Zm4.329-.024a.144.144,0,0,0-.049.009,1.992,1.992,0,0,0-.339.175c-.049.029-.1.06-.153.089.007.025.012.05.017.073a.281.281,0,0,0,.046.127.115.115,0,0,0,.092.044.277.277,0,0,0,.127-.04l.026-.014a.927.927,0,0,1,.224-.1l.021,0c.084-.019.157-.035.151-.151S19.047,11.374,18.96,11.374Zm-1.1-.546h-.007a.258.258,0,0,0-.09.062l-.034.03.03.035-.057.051a1.292,1.292,0,0,0-.12.115c-.028.032-.072.1-.059.123a.292.292,0,0,0,.146.113h.011a.183.183,0,0,0,.112-.064,1.076,1.076,0,0,0,.149-.233.28.28,0,0,0,.006-.169A.121.121,0,0,0,17.859,10.829Zm-3.815.181a.164.164,0,0,0-.148.083.122.122,0,0,0-.008.1A.209.209,0,0,0,14,11.3l.032.009a.3.3,0,0,0,.081.016.106.106,0,0,0,.1-.068.16.16,0,0,0,.007-.122.181.181,0,0,0-.089-.107A.194.194,0,0,0,14.044,11.01Zm2.758-.533a.332.332,0,0,0-.119.021c-.1.041-.086.142-.058.236s.034.15-.054.209c-.015.01-.017.04-.019.069a.334.334,0,0,1,0,.04h.031a.272.272,0,0,0,.072-.006.579.579,0,0,0,.087-.038l.039-.019.193-.1-.019-.033c0-.009.01-.017.016-.026s.029-.044.025-.061-.006-.03-.009-.045a.453.453,0,0,0-.078-.217A.144.144,0,0,0,16.8,10.477Zm4.562-.32a.414.414,0,0,0-.251.189.129.129,0,0,0,0,.1.207.207,0,0,0,.087.122.1.1,0,0,0,.047.009.355.355,0,0,0,.259-.131.328.328,0,0,0-.121-.28A.045.045,0,0,0,21.364,10.157Zm-3.871-.6h-.007a.228.228,0,0,0-.12.384.771.771,0,0,0,.09.08l.046.037c.078.015.16.032.243.05l.049.009a.544.544,0,0,1,.154.044.388.388,0,0,0,.18.046.548.548,0,0,0,.252-.073,1.436,1.436,0,0,1,.272-.1.176.176,0,0,0,.115-.072.143.143,0,0,0,0-.111c-.021-.068-.043-.137-.065-.205l-.033-.1c-.02-.064-.054-.1-.1-.1a.133.133,0,0,0-.047.01.232.232,0,0,1-.084.016.45.45,0,0,1-.181-.052l0,0a.311.311,0,0,0-.1-.02.068.068,0,0,0-.05.014.212.212,0,0,0-.029.13c0,.012,0,.024,0,.035a.133.133,0,0,0,.014.053.282.282,0,0,1,.011.028.141.141,0,0,1-.1.2.977.977,0,0,0-.116.053.319.319,0,0,1-.139.039c-.1,0-.162-.082-.163-.231,0-.008,0-.017,0-.025a.177.177,0,0,0-.01-.084A.107.107,0,0,0,17.493,9.555Zm2.033-.89c-.014,0-.034.018-.049.037s-.024.035-.021.047a.254.254,0,0,0,.087.133.388.388,0,0,0,.116.047l.053.016v.009s0,.007,0,.01h.009l.1.006V8.946a.073.073,0,0,0,0-.041l-.02-.029a.866.866,0,0,0-.124-.158.235.235,0,0,0-.148-.053Zm1.981-.873a.068.068,0,0,0-.043.011c-.022.017-.019.072-.017.088.009.081.021.162.033.241l.011.074c0,.017.012.049.019.049h.05c.108,0,.217,0,.322,0l.035-.038-.02-.026-.031-.041c-.019-.026-.037-.053-.055-.079a1.7,1.7,0,0,0-.115-.155.543.543,0,0,0-.142-.11A.1.1,0,0,0,21.507,7.793Zm-.732-2.26a.2.2,0,0,0-.191.129.285.285,0,0,0,.12.374.1.1,0,0,0,.043.008.386.386,0,0,0,.293-.215.2.2,0,0,0-.12-.264A.367.367,0,0,0,20.774,5.533Zm2.811-.519-.04,0a.229.229,0,0,0-.135.083.869.869,0,0,0-.134.213,3.048,3.048,0,0,0-.138.409c-.009.038.033.1.066.127a.014.014,0,0,0,.009,0,.182.182,0,0,0,.1-.055c.095-.13.184-.261.263-.377l.075-.11c.061-.121.076-.2.048-.248A.128.128,0,0,0,23.585,5.014Zm.354-.3a.121.121,0,0,0-.118.074c-.066.137-.039.264.065.318a.226.226,0,0,0,.1.027.223.223,0,0,0,.2-.144.164.164,0,0,0-.08-.226A.394.394,0,0,0,23.939,4.71Zm.977-.192a.12.12,0,0,0-.049.011.637.637,0,0,0-.128.085c-.02.016-.04.032-.061.046,0,.017,0,.034,0,.049,0,.03-.007.057,0,.07a.145.145,0,0,0,.1.042h.009a.743.743,0,0,0,.175-.049c.067-.026.087-.08.06-.163A.114.114,0,0,0,24.916,4.518Zm-.476-1.838a.173.173,0,0,0-.151.1.264.264,0,0,0,.074.328.08.08,0,0,0,.039.009.363.363,0,0,0,.252-.158.114.114,0,0,0,0-.088.294.294,0,0,0-.129-.169A.187.187,0,0,0,24.439,2.679Z" transform="translate(4.644 7.991)"/>
    </g>
  </g>
</svg>
